<svg xmlns="http://www.w3.org/2000/svg" viewBox="0 0 720 520" fill="none">
  <rect width="720" height="520" rx="28" fill="#050505"/>
  <g stroke="rgba(255,255,255,0.9)" stroke-width="2" stroke-linecap="round" stroke-dasharray="2 8">
    <path d="M560 52C584 52 594 70 594 90C594 110 580 118 560 118"/>
    <path d="M560 118H260"/>
    <path d="M260 118V178"/>
    <path d="M590 118C642 118 664 136 664 174"/>
    <path d="M522 174H420"/>
    <path d="M420 174C380 174 362 192 362 232"/>
    <path d="M420 174C420 224 386 242 338 242"/>
    <path d="M420 174C420 230 456 246 546 246"/>
    <path d="M338 242V328"/>
    <path d="M338 328C338 382 320 406 302 406"/>
    <path d="M338 328C338 382 362 406 390 406"/>
    <path d="M468 242V320"/>
    <path d="M468 320C468 350 452 366 436 366"/>
    <path d="M468 320C468 350 488 366 510 366"/>
    <path d="M586 246V312"/>
    <path d="M586 312V366"/>
    <path d="M662 174V378"/>
    <path d="M662 378C662 392 654 396 644 396"/>
    <path d="M86 276H232"/>
    <path d="M86 276V462H314"/>
    <path d="M86 242V386"/>
    <path d="M86 310H122"/>
    <path d="M86 342H122"/>
    <path d="M86 374H122"/>
    <path d="M86 406H122"/>
    <path d="M86 438H122"/>
    <path d="M260 206V276"/>
    <path d="M260 276V334"/>
    <path d="M260 334C260 358 244 370 226 370"/>
    <path d="M260 334C260 358 280 370 300 370"/>
    <path d="M612 396H662"/>
  </g>
  <g fill="#e7e7e4" stroke="rgba(255,255,255,0.15)">
    <rect x="510" y="30" width="88" height="32" rx="8"/>
    <rect x="190" y="102" width="88" height="32" rx="8"/>
    <rect x="498" y="102" width="116" height="32" rx="8"/>
    <rect x="622" y="150" width="86" height="32" rx="8"/>
    <rect x="438" y="150" width="82" height="32" rx="8"/>
    <rect x="362" y="150" width="82" height="32" rx="8"/>
    <circle cx="260" cy="206" r="36"/>
    <rect x="0" y="188" width="92" height="32" rx="8"/>
    <rect x="218" y="276" width="84" height="30" rx="8"/>
    <rect x="340" y="264" width="86" height="34" rx="8"/>
    <rect x="438" y="264" width="82" height="34" rx="8"/>
    <rect x="556" y="264" width="92" height="34" rx="8"/>
    <rect x="146" y="328" width="76" height="30" rx="8"/>
    <rect x="228" y="328" width="80" height="30" rx="8"/>
    <rect x="418" y="366" width="62" height="32" rx="8"/>
    <rect x="490" y="366" width="62" height="32" rx="8"/>
    <rect x="586" y="366" width="70" height="32" rx="8"/>
    <rect x="88" y="300" width="74" height="24" rx="6"/>
    <rect x="88" y="332" width="74" height="24" rx="6"/>
    <rect x="88" y="364" width="74" height="24" rx="6"/>
    <rect x="88" y="396" width="74" height="32" rx="6"/>
    <rect x="88" y="430" width="74" height="24" rx="6"/>
    <rect x="88" y="458" width="74" height="36" rx="6"/>
    <rect x="286" y="406" width="90" height="30" rx="8"/>
    <rect x="388" y="406" width="92" height="30" rx="8"/>
  </g>
  <g fill="#101010" font-family="Arial, sans-serif" text-anchor="middle">
    <text x="554" y="50" font-size="10">Estrategia</text>
    <text x="234" y="122" font-size="10">Identidad</text>
    <text x="556" y="122" font-size="10">Comunicación</text>
    <text x="665" y="170" font-size="10">Misión/Visión</text>
    <text x="479" y="170" font-size="10">"Voz"</text>
    <text x="479" y="181" font-size="10">de marca</text>
    <text x="403" y="170" font-size="10">Marketing</text>
    <text x="260" y="214" font-size="20">CyC</text>
    <text x="46" y="208" font-size="10">Visibilidad</text>
    <text x="260" y="295" font-size="10">Sitio Web</text>
    <text x="383" y="284" font-size="10">Redes</text>
    <text x="383" y="295" font-size="10">Sociales</text>
    <text x="479" y="285" font-size="10">Publicidad</text>
    <text x="602" y="285" font-size="10">Blog</text>
    <text x="184" y="347" font-size="10">Blue Drop</text>
    <text x="268" y="344" font-size="10">Green</text>
    <text x="268" y="355" font-size="10">Drone</text>
    <text x="449" y="385" font-size="10">Digital</text>
    <text x="521" y="385" font-size="10">Impresa</text>
    <text x="621" y="385" font-size="10">Artículos</text>
    <text x="125" y="316" font-size="9">Servicios</text>
    <text x="125" y="348" font-size="9">By CyC...</text>
    <text x="125" y="380" font-size="9">Enlaces</text>
    <text x="125" y="408" font-size="8">Artículos</text>
    <text x="125" y="419" font-size="8">Estratégicos</text>
    <text x="125" y="446" font-size="9">Reseñas</text>
    <text x="125" y="474" font-size="8">Tienda en</text>
    <text x="125" y="485" font-size="8">línea</text>
    <text x="331" y="425" font-size="10">Contenido</text>
    <text x="434" y="425" font-size="10">Engagement</text>
  </g>
</svg>
